<svg version="1" xmlns="http://www.w3.org/2000/svg" width="682.667" height="682.667" viewBox="0 0 512.000000 512.000000"><path d="M250.3 2c-4.8 2.9-5.5 7.1-5.1 29.6l.3 19.4 3.2 3.1c5.7 5.8 15.2 3.7 17.2-3.8 1.4-4.9 1.4-37.7 0-42.6-.7-2.6-2.1-4.4-4.2-5.7-4.1-2.5-7.4-2.5-11.4 0zM98.4 65.4c-2.7 2.7-3.4 4.2-3.4 7.2 0 3.5 1 4.8 15.7 19.5 10.3 10.4 16.6 16 18.4 16.4 4.1.9 9.4-2 11.4-6.1 2.8-6 1.5-8.6-11.9-22.3-6.6-6.8-13.9-13.7-16-15.2-5.5-4.1-9.8-3.9-14.2.5zM399.4 64.9c-2.1 1.5-9.4 8.4-16 15.2-13.4 13.7-14.7 16.3-11.9 22.3 2 4.1 7.3 7 11.4 6.1 1.8-.4 8.1-6 18.4-16.4C416 77.4 417 76.1 417 72.6c0-3-.7-4.5-3.4-7.2-4.4-4.4-8.7-4.6-14.2-.5zM234.5 78.1C189.7 85 151 112 127.6 152.5c-24.2 41.9-24.7 97.7-1.4 140.5 8 14.7 15 23.3 34.8 43 21.2 21.2 26.7 28.7 33.5 45.1 3 7.3 3.5 9.5 3.5 17v8.5l-3.9 1.7c-6.1 2.7-8.7 8-7 14.2 1.1 3.8 6 8.5 9 8.5 1.7 0 1.9.8 1.9 7 0 6.3-.2 7-2 7-1 0-3.5 1.3-5.3 3-5.6 4.8-5.8 11.8-.5 17 1.6 1.7 4 3 5.4 3 2.1 0 2.4.5 2.4 3.5 0 10.7 9.1 19.4 20.1 19.5 4.2 0 4.9.3 7.1 3.8 4.1 5.9 9.7 11 15.7 14 4.9 2.4 6.8 2.7 15.1 2.7s10.2-.3 15.1-2.7c6-3 11.6-8.1 15.7-14.1 2.3-3.5 2.8-3.7 7.6-3.7 11.5-.1 20.6-8.6 20.6-19.5 0-2.8.4-3.5 1.9-3.5 1.1 0 3.3-1.3 4.9-2.9 5.2-5.3 5.1-12.2-.5-17.1-1.8-1.6-4-3-4.8-3-1.2 0-1.5-1.5-1.5-6.8 0-6.5.1-6.7 3.2-8.2 4.4-2.1 7.1-6.1 7.1-10.7 0-4.9-2.4-8.6-6.9-10.8l-3.4-1.6v-8.5c0-7.2.5-9.8 3.1-16.2 6.9-17.5 15.3-28.9 36.9-50.2 17.2-17 24.1-26 32.4-42.5 10.1-19.8 14.5-37.7 15.3-61.5.4-12.8.2-17.6-1.5-27.6-10.4-60.7-54-106.5-114.7-120.6-10.2-2.3-41.4-3.4-52-1.7zm10.6 141.2c1.3 1 3.9 2.9 5.8 4.2 4.5 3.3 8.8 3.2 13.1-.4 5.5-4.4 9.5-6.1 14.8-6.1 4.1 0 6 .7 11.8 4.5 7.6 5 11.1 5.6 15.5 2.4 3.5-2.4 6.9-2.2 7.9.6.6 1.6-19.3 79.9-40.5 159.2l-1.7 6.3h-9.4l19.7-75.5c10.9-41.5 20-76.4 20.4-77.4.5-1.7-.1-2.1-4.2-2.7-5-.7-9.3-2.7-15.3-7-4.4-3.2-8.5-2.8-13.8 1.4-5.6 4.4-8.1 5.4-13.2 5.4s-7.6-1-13.2-5.4c-6-4.7-9.3-4.7-16.3.1-3.9 2.7-8 4.5-11.7 5.2-3.2.7-5.8 1.2-5.7 1.3 0 0 9.3 34.7 20.7 77.1l20.8 77-4.4.3c-2.4.2-4.6.2-4.7 0-.2-.2-9.8-37.4-21.5-82.6-16.5-64.6-20.8-82.7-19.9-83.8 1.6-2 4.7-1.7 7.6.6 3.9 3.1 9.5 2.7 13.6-1 5.8-5.1 8.6-6.1 15.3-5.8 3.8.2 7 1 8.5 2.1zM39.3 213.5c-4.7 2-7 7.2-5.5 12.4 2.2 7.2 3.7 7.6 28.4 7.6H84l3.1-3.1c5.5-5.5 3.7-13.9-3.6-17-4.8-2-39.6-1.9-44.2.1zM427.4 213.6c-6.5 3.2-7.7 11.5-2.5 16.8l3.1 3.1h21.8c24.7 0 26.2-.4 28.4-7.6 1.5-5.3-.8-10.4-5.7-12.5-5.1-2.1-40.7-2-45.1.2zM126.5 338.6c-3.5 1.7-24.3 22.1-28.6 27.8-4.8 6.4-3.5 12.7 3.3 16.2 5.8 3 8.1 1.7 24.5-14.9 8.9-8.9 15.4-16.3 15.8-17.8.9-3.8-1.8-9.5-5.4-11.3-3.8-2-5.8-2-9.6 0zM375.4 338.9c-3.6 2.2-5.9 7.7-4.9 11.3.4 1.3 7.5 9.2 15.8 17.5 16.4 16.6 18.7 17.9 24.5 14.9 6.8-3.5 8.1-9.8 3.3-16.2-4.5-6.2-26.4-27.2-29.5-28.3-3.9-1.5-5.7-1.4-9.2.8z"/></svg>